<?xml version="1.0" standalone="no"?>
<!DOCTYPE svg PUBLIC "-//W3C//DTD SVG 20010904//EN"
 "http://www.w3.org/TR/2001/REC-SVG-20010904/DTD/svg10.dtd">
<svg version="1.0" xmlns="http://www.w3.org/2000/svg"
 width="768.000000pt" height="528.000000pt" viewBox="0 0 768.000000 528.000000"
 preserveAspectRatio="xMidYMid meet">

<g transform="translate(0.000000,528.000000) scale(0.100000,-0.100000)"
fill="#000000" stroke="none">
<path d="M2755 4508 c-3 -7 -4 -227 -3 -488 l3 -475 488 -3 487 -2 0 105 0
105 -270 0 c-148 0 -270 4 -270 9 0 4 25 30 55 57 l55 49 0 156 c0 170 2 165
-67 218 -71 54 -64 58 130 66 94 4 216 5 270 2 l97 -5 0 109 0 109 -485 0
c-379 0 -487 -3 -490 -12z"/>
<path d="M3960 4025 l0 -485 100 0 100 0 0 270 0 270 280 0 280 0 0 -270 0
-270 105 0 105 0 0 485 0 485 -485 0 -485 0 0 -485z"/>
<path d="M2750 2820 l0 -480 485 0 485 0 0 100 0 100 -270 0 -270 0 0 261 c0
160 4 268 10 280 10 18 24 19 270 19 l260 0 0 100 0 100 -485 0 -485 0 0 -480z"/>
<path d="M3952 2813 l3 -488 488 -3 487 -2 0 490 0 490 -105 0 -105 0 0 -270
c0 -153 -4 -270 -9 -270 -5 0 -30 25 -56 55 l-48 55 -156 0 c-86 0 -160 -4
-166 -8 -5 -4 -27 -28 -48 -54 -67 -83 -67 -82 -67 222 l0 270 -110 0 -110 0
2 -487z"/>
<path d="M1111 1931 c-84 -22 -121 -80 -121 -191 0 -91 24 -150 72 -180 28
-18 45 -21 114 -17 142 6 189 54 189 192 0 97 -23 149 -78 178 -41 21 -127 30
-176 18z m120 -71 c46 -25 66 -147 34 -209 -29 -57 -124 -66 -163 -16 -44 55
-35 175 15 214 28 23 82 28 114 11z"/>
<path d="M4681 1930 c-84 -20 -121 -79 -121 -190 1 -150 56 -205 201 -198 86
3 119 20 152 76 43 72 30 215 -24 270 -44 45 -126 61 -208 42z m120 -70 c46
-25 65 -133 35 -204 -27 -65 -125 -73 -170 -13 -16 21 -21 43 -21 91 0 69 15
108 49 124 28 14 82 15 107 2z"/>
<path d="M2780 1921 c-81 -26 -113 -81 -113 -191 1 -138 59 -200 189 -200 129
0 189 64 189 200 0 134 -50 190 -173 196 -37 2 -78 0 -92 -5z m145 -85 c28
-28 40 -80 32 -138 -10 -78 -62 -115 -132 -96 -40 10 -63 40 -71 93 -15 104
23 165 101 165 35 0 52 -6 70 -24z"/>
<path d="M4420 1734 l0 -195 38 3 37 3 3 193 2 192 -40 0 -40 0 0 -196z"/>
<path d="M722 1900 c-33 -15 -47 -29 -62 -62 -28 -62 -27 -160 3 -218 32 -65
68 -80 190 -80 l97 0 0 30 0 30 -69 0 c-78 0 -127 14 -141 40 -6 10 -10 50
-10 89 0 59 4 74 24 98 23 26 31 28 110 32 l86 3 0 29 0 29 -92 0 c-70 0 -103
-5 -136 -20z"/>
<path d="M1430 1779 c0 -211 20 -239 174 -239 l86 0 0 30 0 30 -70 0 c-107 0
-110 6 -110 180 l0 140 -40 0 -40 0 0 -141z"/>
<path d="M1814 1906 c-44 -19 -71 -59 -84 -121 -21 -99 7 -185 72 -225 27 -16
51 -20 136 -20 l102 0 0 29 0 29 -89 4 c-101 3 -131 20 -131 70 l0 28 110 0
110 0 0 35 0 35 -110 0 c-93 0 -110 2 -110 16 0 51 48 74 151 74 l69 0 0 30 0
30 -97 0 c-59 -1 -110 -6 -129 -14z"/>
<path d="M2184 1906 c-65 -29 -100 -109 -91 -208 6 -70 31 -114 79 -139 31
-16 59 -19 158 -19 l121 0 -3 113 -3 112 -92 3 -93 3 0 -35 0 -35 53 -3 52 -3
0 -40 0 -40 -54 -3 c-79 -5 -100 3 -117 43 -30 73 -8 176 41 195 15 6 69 10
121 10 l94 0 0 30 0 30 -117 0 c-76 -1 -129 -6 -149 -14z"/>
<path d="M2500 1730 l0 -190 40 0 40 0 0 190 0 190 -40 0 -40 0 0 -190z"/>
<path d="M3250 1730 l0 -190 45 0 46 0 -7 135 c-4 79 -3 135 2 135 5 0 43 -61
84 -135 l75 -134 48 -1 47 0 0 190 0 190 -40 0 -39 0 -3 -130 -3 -130 -74 130
-73 130 -54 0 -54 0 0 -190z"/>
<path d="M3713 1748 c-40 -95 -75 -181 -79 -191 -6 -16 -2 -18 36 -15 41 3 44
5 58 46 l14 43 86 -3 85 -3 16 -42 c15 -42 16 -43 59 -43 38 0 43 3 38 18 -3
9 -39 95 -79 189 l-72 173 -45 0 -45 0 -72 -172z m161 -25 c7 -22 5 -23 -48
-23 l-55 0 24 65 c14 36 25 69 26 73 1 8 43 -83 53 -115z"/>
<path d="M4131 1902 c-47 -23 -69 -57 -81 -122 -18 -99 9 -181 73 -220 26 -16
51 -20 135 -20 l102 0 0 29 0 29 -90 4 c-119 4 -135 18 -135 117 0 116 27 141
150 141 l75 0 0 30 0 30 -97 0 c-74 0 -107 -4 -132 -18z"/>
<path d="M5010 1730 l0 -190 46 0 45 0 -7 135 c-4 78 -3 135 2 135 5 0 43 -61
84 -135 l75 -134 48 -1 47 0 0 190 0 190 -40 0 -39 0 -3 -130 -3 -130 -74 130
-73 130 -54 0 -54 0 0 -190z"/>
<path d="M5537 1883 c-8 -21 -45 -107 -80 -190 l-65 -153 42 0 c42 0 44 1 60
45 l18 45 83 0 83 0 18 -45 c16 -44 18 -45 60 -45 24 0 44 1 44 3 0 2 -35 86
-78 188 l-79 184 -45 3 c-44 3 -46 2 -61 -35z m87 -112 c14 -36 26 -66 26 -68
0 -2 -25 -3 -56 -3 -49 0 -55 2 -49 18 4 9 16 41 27 70 11 29 21 52 23 50 2
-2 15 -32 29 -67z"/>
<path d="M6320 1730 l0 -190 118 0 c142 0 176 13 210 80 29 58 30 156 2 218
-29 64 -75 82 -217 82 l-113 0 0 -190z m209 119 c42 -15 51 -35 51 -119 0 -39
-4 -80 -10 -90 -13 -24 -62 -40 -121 -40 l-49 0 0 130 0 130 49 0 c26 0 62 -5
80 -11z"/>
<path d="M6800 1902 c-52 -27 -80 -89 -80 -177 0 -83 20 -129 69 -162 30 -20
47 -23 137 -23 l104 0 0 29 0 29 -91 4 c-81 3 -93 6 -110 27 -10 13 -19 34
-19 47 0 24 1 24 110 24 l110 0 0 35 0 35 -110 0 c-63 0 -110 4 -110 10 0 26
26 60 53 70 16 5 61 10 98 10 l69 0 0 30 0 30 -98 0 c-75 0 -105 -4 -132 -18z"/>
<path d="M5832 1768 c6 -209 29 -238 187 -238 l81 0 0 29 c0 28 0 28 -76 33
-108 7 -108 8 -112 178 l-4 140 -40 0 -40 0 4 -142z"/>
<path d="M550 1330 l0 -30 3290 0 3290 0 0 30 0 30 -3290 0 -3290 0 0 -30z"/>
<path d="M2640 1138 c-61 -32 -84 -80 -84 -174 0 -154 82 -223 238 -200 92 14
139 80 140 196 0 138 -58 199 -189 200 -44 0 -73 -6 -105 -22z m168 -61 c57
-47 53 -204 -6 -236 -37 -20 -101 -13 -127 13 -61 61 -38 216 36 238 30 9 78
2 97 -15z"/>
<path d="M6470 1138 c-66 -34 -85 -74 -85 -178 0 -99 19 -141 75 -175 49 -28
171 -28 219 0 64 38 76 65 76 175 0 107 -9 130 -69 174 -43 32 -157 34 -216 4z
m145 -52 c18 -8 38 -23 43 -33 30 -57 21 -164 -19 -204 -28 -28 -100 -26 -136
5 -26 23 -28 29 -28 104 0 66 4 84 20 102 36 40 68 47 120 26z"/>
<path d="M600 1132 c-108 -57 -108 -286 0 -343 27 -15 56 -19 132 -19 l98 0 0
29 0 28 -82 6 c-46 3 -90 8 -99 12 -26 10 -39 51 -39 121 0 59 3 68 29 95 28
27 34 29 110 29 l81 0 0 30 0 30 -98 0 c-75 0 -105 -4 -132 -18z"/>
<path d="M900 1010 c0 -164 10 -198 63 -223 51 -25 172 -23 214 3 50 30 56 52
61 212 l5 148 -47 0 -46 0 0 -143 c0 -167 -5 -177 -81 -177 -80 0 -89 20 -89
189 l0 131 -40 0 -40 0 0 -140z"/>
<path d="M1310 960 l0 -190 40 0 40 0 0 75 0 75 51 0 c66 0 104 -34 114 -103
7 -47 8 -47 46 -47 34 0 39 3 39 23 -1 47 -20 103 -42 120 -20 17 -21 20 -5
28 26 15 47 63 47 109 0 33 -6 48 -29 71 l-29 29 -136 0 -136 0 0 -190z m246
105 c36 -49 4 -75 -92 -75 l-74 0 0 43 c0 24 3 47 8 51 4 4 38 6 76 4 53 -3
71 -8 82 -23z"/>
<path d="M1825 1113 c-9 -21 -38 -90 -65 -153 -27 -63 -56 -132 -64 -152 l-16
-38 43 0 c41 0 43 1 58 43 l16 42 85 3 85 3 17 -46 c17 -44 19 -45 62 -45 l44
0 -19 48 c-11 26 -46 110 -79 187 l-60 140 -46 3 c-44 3 -46 2 -61 -35z m63
-181 c-28 -2 -52 -1 -55 2 -5 4 31 108 44 129 3 6 18 -21 33 -59 l28 -69 -50
-3z"/>
<path d="M2140 960 l0 -190 120 0 c128 0 156 7 196 52 49 53 57 178 17 255
-31 60 -68 73 -210 73 l-123 0 0 -190z m218 119 c41 -14 55 -53 50 -134 -6
-90 -23 -106 -114 -108 l-69 -2 -3 114 c-1 63 0 121 2 128 7 16 90 18 134 2z"/>
<path d="M3000 960 l0 -190 40 0 40 0 0 75 0 75 54 0 c47 0 58 -4 85 -30 20
-21 32 -45 37 -75 6 -43 8 -45 40 -45 18 0 36 5 39 10 12 19 -8 104 -29 125
l-21 21 22 33 c16 24 23 49 23 83 0 41 -5 54 -29 79 l-29 29 -136 0 -136 0 0
-190z m220 121 c18 -5 26 -15 28 -35 6 -45 -12 -56 -94 -56 l-74 0 0 43 c0 24
3 47 7 50 8 9 100 7 133 -2z"/>
<path d="M3448 1128 c-45 -26 -68 -72 -75 -148 -9 -96 25 -167 94 -196 20 -9
69 -14 128 -14 l95 0 0 29 0 28 -91 5 c-99 6 -122 18 -134 70 l-7 27 114 3
113 3 0 30 0 30 -113 3 c-112 3 -113 3 -107 25 15 50 40 62 135 65 l90 4 0 29
0 29 -102 0 c-87 0 -109 -4 -140 -22z"/>
<path d="M3780 1137 c-33 -16 -50 -52 -50 -105 0 -35 6 -49 29 -73 28 -27 34
-29 115 -29 102 0 136 -11 136 -43 0 -41 -17 -47 -142 -47 l-118 0 0 -36 0
-35 146 3 c146 3 146 3 170 31 35 41 34 127 -1 162 -22 23 -32 25 -118 25 -77
0 -99 3 -117 18 -17 14 -21 24 -15 41 10 32 44 41 161 41 l104 0 0 30 0 30
-137 0 c-91 0 -147 -5 -163 -13z"/>
<path d="M4330 997 c0 -167 5 -183 60 -212 40 -21 162 -20 207 2 53 25 63 59
63 223 l0 140 -39 0 -40 0 -3 -146 c-3 -167 -7 -174 -89 -174 -73 0 -79 15
-79 182 l0 138 -40 0 -40 0 0 -153z"/>
<path d="M4740 955 l0 -195 40 0 39 0 3 78 3 77 59 0 c53 -1 61 -4 87 -33 23
-25 29 -42 29 -77 l0 -45 45 0 c45 0 45 0 45 35 0 46 -23 100 -49 116 -19 13
-19 13 5 42 19 23 24 40 24 84 0 47 -4 59 -29 84 l-29 29 -136 0 -136 0 0
-195z m235 115 c18 -15 20 -51 3 -68 -7 -7 -42 -12 -85 -12 l-73 0 0 43 c0 24
3 47 8 51 11 12 130 0 147 -14z"/>
<path d="M5164 1137 c-2 -7 -3 -94 -2 -192 l3 -180 137 0 c123 0 139 2 165 21
15 11 30 34 33 50 9 40 -6 91 -30 104 -18 10 -18 11 6 35 18 18 24 35 24 68 0
86 -42 106 -223 107 -79 0 -109 -3 -113 -13z m240 -73 c19 -19 20 -35 3 -58
-10 -14 -25 -16 -87 -14 -74 3 -75 3 -78 31 -6 51 1 57 77 57 50 0 74 -4 85
-16z m8 -170 c21 -46 2 -59 -88 -59 l-79 0 -3 28 c-6 52 1 57 83 57 71 0 76
-1 87 -26z"/>
<path d="M5606 988 c-38 -90 -75 -178 -82 -195 l-14 -33 43 0 c41 0 43 1 58
43 l16 42 85 3 86 3 17 -46 c17 -44 19 -45 62 -45 32 0 44 4 40 13 -2 6 -39
94 -82 195 l-77 182 -42 0 -42 0 -68 -162z m138 3 c14 -36 26 -66 26 -68 0 -2
-25 -3 -55 -3 -30 0 -55 4 -55 9 0 5 7 26 16 47 9 22 20 50 25 63 12 29 11 30
43 -48z"/>
<path d="M5980 956 l0 -196 40 0 39 0 3 143 3 142 80 -142 80 -143 48 0 47 0
0 195 0 195 -40 0 -39 0 -3 -136 -3 -135 -76 133 -76 133 -52 3 -51 3 0 -195z"/>
<path d="M6850 1137 c-33 -16 -50 -52 -50 -105 0 -35 6 -49 29 -73 28 -27 34
-29 113 -29 104 0 127 -6 134 -36 12 -45 -8 -53 -139 -56 l-122 -3 0 -30 0
-30 130 -3 c137 -3 175 5 200 42 22 31 19 118 -4 147 -18 22 -28 24 -124 27
-87 3 -108 7 -122 22 -22 24 -11 58 22 71 13 5 69 9 124 9 l99 0 0 30 0 30
-132 0 c-87 0 -142 -5 -158 -13z"/>
</g>
</svg>
